<svg width="293" height="349" viewBox="0 0 293 349" fill="none" xmlns="http://www.w3.org/2000/svg">
<g clip-path="url(#clip0_37_10)">
<path d="M70.5101 174.39L76.4625 180.351C49.6167 154.666 39.1082 130.366 49.6239 107.843L78.9439 78.4852L122.608 122.211L70.5025 174.39H70.5101Z" fill="url(#paint0_linear_37_10)"/>
<path d="M122.616 226.569L78.9451 270.288L12.4812 203.74C-3.63802 187.594 -3.63802 161.18 12.4812 145.041L49.6246 107.843C39.1016 130.366 49.61 154.666 76.4631 180.351L122.616 226.569Z" fill="#202020"/>
<path d="M276.99 212.79L235.756 254.076C247.262 229.469 233.668 202.727 201.072 174.383L172.102 145.375L61.5084 34.6492L80.2908 15.8427C101.388 -5.2809 135.904 -5.2809 157.001 15.8427L276.99 135.99C298.086 157.114 298.086 191.674 276.99 212.79Z" fill="#202020"/>
<path d="M235.756 254.076L157.001 332.931C135.904 354.047 101.388 354.047 80.2908 332.931L61.5084 314.124L186.831 188.643L201.072 174.383C233.668 202.728 247.269 229.469 235.756 254.076Z" fill="url(#paint1_linear_37_10)"/>
</g>
<defs>
<linearGradient id="paint0_linear_37_10" x1="53.7501" y1="153.405" x2="103.437" y2="103.781" gradientUnits="userSpaceOnUse">
<stop stop-color="#2B2C2B"/>
<stop offset="1" stop-color="#232424"/>
</linearGradient>
<linearGradient id="paint1_linear_37_10" x1="220" y1="199" x2="92.5" y2="332" gradientUnits="userSpaceOnUse">
<stop stop-color="#2B2C2B"/>
<stop offset="0.982237" stop-color="#232424"/>
</linearGradient>
<clipPath id="clip0_37_10">
<rect width="293" height="349" fill="white"/>
</clipPath>
</defs>
</svg>
