<?xml version="1.0" standalone="no"?>
<!DOCTYPE svg PUBLIC "-//W3C//DTD SVG 20010904//EN"
 "http://www.w3.org/TR/2001/REC-SVG-20010904/DTD/svg10.dtd">
<svg version="1.0" xmlns="http://www.w3.org/2000/svg"
 width="2160.000000pt" height="569.000000pt" viewBox="0 0 2160.000000 569.000000"
 preserveAspectRatio="xMidYMid meet">

<g transform="translate(0.000000,569.000000) scale(0.100000,-0.100000)"
fill="#000000" stroke="none">
<path d="M12592 5367 l3 -321 617 -240 c339 -133 614 -244 610 -247 -4 -4
-277 -107 -607 -229 -330 -122 -606 -225 -612 -227 -10 -4 -13 -80 -13 -335 0
-260 3 -329 13 -325 6 3 480 195 1052 427 572 232 1046 424 1053 427 10 4 12
64 10 271 l-3 266 -290 116 c-159 64 -638 257 -1063 428 l-772 311 2 -322z"/>
<path d="M13655 3150 l-340 -138 -3 -236 -2 -236 -145 0 -145 0 0 -260 0 -260
145 0 144 0 3 -717 c3 -705 4 -719 26 -796 61 -219 188 -359 387 -430 118 -41
197 -52 385 -52 162 0 251 9 353 36 l37 10 0 270 c0 254 -1 271 -17 264 -10
-4 -51 -13 -91 -21 -188 -36 -296 -1 -358 116 -18 33 -19 73 -22 677 l-3 643
238 2 238 3 3 258 2 257 -240 0 -240 0 0 375 c0 206 -3 375 -7 375 -5 -1 -161
-63 -348 -140z"/>
<path d="M885 2575 c-271 -48 -480 -156 -618 -321 -95 -112 -166 -279 -183
-425 l-7 -59 334 2 334 3 3 25 c13 109 80 203 179 252 66 32 71 33 193 33 110
0 131 -3 178 -24 121 -55 178 -165 189 -368 l6 -113 -154 0 c-208 -1 -448 -16
-567 -35 -127 -22 -316 -84 -411 -138 -113 -63 -226 -179 -279 -287 -64 -131
-77 -190 -77 -370 0 -179 13 -239 75 -367 92 -187 276 -315 525 -364 111 -22
351 -17 449 9 160 44 308 135 395 243 l46 58 3 -139 3 -140 340 0 340 0 -3
927 c-3 927 -3 928 -26 1007 -12 44 -41 118 -63 165 -34 70 -58 102 -133 176
-73 73 -109 100 -181 137 -96 49 -178 78 -290 104 -99 22 -490 28 -600 9z
m603 -1617 c-6 -192 -22 -247 -94 -327 -52 -58 -154 -113 -241 -131 -70 -15
-246 -8 -288 11 -108 48 -163 125 -172 242 -14 170 54 272 216 327 87 29 170
37 390 39 l194 1 -5 -162z"/>
<path d="M3580 2583 c-466 -71 -790 -340 -935 -776 -48 -144 -66 -257 -72
-454 -13 -405 68 -702 259 -951 232 -301 681 -454 1135 -386 493 73 805 371
888 848 8 49 15 93 15 97 0 5 -143 9 -318 9 l-317 0 -12 -59 c-26 -140 -131
-285 -246 -341 -165 -80 -379 -52 -506 66 -133 123 -191 320 -191 649 0 327
58 523 191 650 70 67 138 100 237 115 137 22 272 -19 352 -106 46 -51 92 -141
113 -224 l14 -55 333 -3 333 -2 -7 64 c-3 35 -15 98 -26 139 -99 388 -391 644
-813 712 -84 14 -358 19 -427 8z"/>
<path d="M6119 2575 c-243 -46 -443 -148 -605 -309 -174 -173 -284 -402 -336
-696 -19 -113 -16 -480 5 -597 28 -149 64 -261 122 -378 149 -303 399 -490
755 -566 141 -30 430 -33 560 -6 454 97 731 369 820 806 32 159 71 141 -295
141 l-315 0 -6 -27 c-64 -289 -259 -446 -516 -413 -301 38 -438 276 -438 762
0 305 59 507 185 634 70 71 143 108 241 124 243 40 419 -94 478 -362 l6 -28
334 0 334 0 -5 43 c-12 108 -56 257 -103 353 -127 261 -329 418 -642 499 -92
24 -125 28 -303 31 -145 2 -221 -1 -276 -11z"/>
<path d="M8702 2576 c-363 -69 -642 -275 -800 -592 -81 -162 -124 -325 -143
-542 -27 -306 20 -607 130 -837 178 -374 525 -581 1006 -602 303 -13 571 53
779 191 105 70 226 198 285 301 42 73 102 232 115 303 l6 32 -325 0 c-253 0
-325 -3 -325 -12 0 -25 -58 -134 -93 -173 -45 -52 -127 -100 -202 -120 -72
-19 -232 -21 -301 -4 -124 30 -236 122 -294 243 -32 69 -65 195 -76 293 l-7
63 812 0 811 0 0 178 c0 398 -52 628 -188 837 -140 214 -342 352 -617 422 -87
22 -126 26 -300 29 -141 2 -221 -1 -273 -10z m361 -481 c197 -42 307 -187 333
-442 l7 -63 -467 0 c-366 0 -466 3 -466 13 0 6 9 50 20 97 75 311 285 456 573
395z"/>
<path d="M11790 2584 c-228 -43 -431 -170 -543 -341 l-42 -64 -3 180 -2 181
-345 0 -345 0 0 -1245 0 -1245 345 0 344 0 3 817 3 818 23 63 c30 84 60 129
120 183 71 64 144 90 269 96 221 11 341 -72 382 -265 8 -37 11 -311 11 -882
l0 -830 350 0 350 0 0 868 c0 497 -5 907 -10 960 -14 133 -44 243 -97 351 -80
166 -224 285 -408 337 -59 17 -345 29 -405 18z"/>
<path d="M20226 2574 c-426 -77 -732 -343 -871 -756 -55 -164 -76 -310 -76
-529 0 -204 10 -305 46 -449 111 -444 411 -722 881 -817 135 -27 443 -24 581
5 232 50 392 131 536 271 88 84 147 167 196 273 33 69 81 218 81 250 0 4 -144
8 -320 8 -297 0 -321 -1 -326 -17 -21 -63 -65 -135 -109 -179 -90 -90 -187
-125 -350 -125 -306 0 -462 170 -510 558 l-7 53 811 0 811 0 0 204 c0 332 -33
514 -130 711 -143 293 -405 478 -764 540 -112 19 -371 19 -480 -1z m344 -474
c134 -25 234 -102 291 -224 30 -63 59 -189 59 -252 l0 -34 -465 0 c-258 0
-465 4 -465 9 0 35 55 211 84 268 94 187 279 274 496 233z"/>
<path d="M18941 2569 c-266 -26 -464 -160 -592 -402 l-38 -72 -1 223 0 222
-350 0 -350 0 0 -1245 0 -1245 350 0 350 0 0 693 c0 750 0 749 55 862 84 174
271 264 588 282 l107 6 -2 341 c-3 294 -5 341 -18 342 -8 1 -53 -2 -99 -7z"/>
<path d="M14913 1603 c3 -824 5 -946 20 -1003 50 -203 121 -326 247 -434 69
-59 147 -99 255 -132 82 -25 104 -27 250 -27 188 0 268 17 405 85 66 33 104
61 171 128 47 47 100 110 117 140 l32 55 0 -182 0 -183 350 0 350 0 0 1245 0
1245 -350 0 -349 0 -3 -832 -3 -833 -23 -57 c-74 -182 -210 -272 -412 -272
-122 0 -191 24 -257 90 -40 40 -56 66 -75 120 l-23 69 -3 858 -3 857 -350 0
-350 0 4 -937z"/>
</g>
</svg>
