<?xml version="1.0" standalone="no"?>
<!DOCTYPE svg PUBLIC "-//W3C//DTD SVG 20010904//EN"
 "http://www.w3.org/TR/2001/REC-SVG-20010904/DTD/svg10.dtd">
<svg version="1.0" xmlns="http://www.w3.org/2000/svg"
 width="4096.000000pt" height="4096.000000pt" viewBox="0 0 4096.000000 4096.000000"
 preserveAspectRatio="xMidYMid meet">

<g transform="translate(0.000000,4096.000000) scale(0.100000,-0.100000)"
fill="#000000" stroke="none">
<path d="M26125 35823 c-405 -51 -764 -126 -1118 -232 -1292 -390 -2402 -1148
-3261 -2226 -755 -946 -1209 -2044 -1347 -3255 -39 -347 -34 -677 14 -890 l12
-55 80 -14 c134 -23 424 -19 605 7 676 98 1219 266 1791 553 814 407 1461 959
2086 1779 639 840 1076 1868 1238 2915 52 337 68 528 69 845 1 285 -2 324 -35
518 l-11 62 -47 -1 c-25 -1 -59 -4 -76 -6z"/>
<path d="M25545 28803 c-347 -21 -617 -55 -930 -118 -613 -123 -1124 -288
-2115 -680 -861 -340 -1175 -445 -1525 -506 -151 -27 -434 -32 -570 -10 -400
62 -692 157 -1554 501 -277 111 -577 229 -665 262 -679 254 -1197 388 -1751
455 -189 22 -821 25 -1040 5 -426 -40 -846 -115 -1217 -218 -2358 -651 -4199
-2493 -5022 -5024 -459 -1409 -601 -2910 -441 -4650 258 -2786 1127 -5402
2583 -7770 246 -400 440 -682 877 -1279 804 -1098 1414 -1780 2011 -2247 133
-105 413 -291 552 -368 533 -296 1091 -424 1687 -387 598 38 1005 152 1925
541 740 312 1113 438 1570 530 343 69 610 98 980 107 597 14 1160 -58 1693
-218 288 -86 483 -162 1053 -407 765 -329 1128 -437 1677 -499 218 -24 684
-24 862 1 749 103 1400 427 2080 1037 497 446 1014 1057 1646 1944 711 997
1048 1547 1472 2395 291 582 513 1099 722 1685 78 216 206 607 203 617 -2 5
-67 37 -146 72 -454 204 -935 501 -1342 827 -1380 1106 -2242 2725 -2384 4479
-32 394 -29 688 9 1080 186 1883 1184 3608 2725 4707 113 80 201 140 343 229
l48 31 -96 128 c-636 845 -1422 1512 -2340 1986 -871 449 -1777 698 -2765 759
-147 9 -686 11 -815 3z"/>
</g>
</svg>
