<?xml version="1.0" standalone="no"?>
<!DOCTYPE svg PUBLIC "-//W3C//DTD SVG 20010904//EN"
 "http://www.w3.org/TR/2001/REC-SVG-20010904/DTD/svg10.dtd">
<svg version="1.0" xmlns="http://www.w3.org/2000/svg"
 width="4096.000000pt" height="4096.000000pt" viewBox="0 0 4096.000000 4096.000000"
 preserveAspectRatio="xMidYMid meet">

<g transform="translate(0.000000,4096.000000) scale(0.100000,-0.100000)"
fill="#9c44dc" stroke="none">
<path d="M14395 28644 c-1269 -70 -2346 -545 -3261 -1436 l-121 -118 -229 0
c-413 0 -753 -42 -1169 -145 -680 -168 -1326 -478 -1885 -903 -839 -639 -1447
-1488 -1759 -2455 -242 -750 -317 -1518 -292 -2981 7 -411 11 -1992 11 -4283
l0 -3633 1956 0 1957 0 -4 5333 c-4 5643 -6 5399 42 5857 116 1126 434 2007
995 2755 102 136 222 280 317 381 l72 77 244 -12 c135 -7 320 -21 412 -31 933
-107 1740 -431 2409 -967 158 -126 423 -382 558 -538 530 -614 908 -1399 1106
-2300 102 -463 148 -867 166 -1445 17 -567 30 -3247 30 -6247 l0 -2863 1955 0
1955 0 0 4028 c0 4429 -7 5156 -50 5937 -56 992 -174 1677 -414 2400 -301 902
-736 1633 -1326 2226 -189 190 -326 309 -524 456 -692 514 -1478 804 -2421
893 -116 11 -610 20 -730 14z"/>
<path d="M21100 24303 c0 -2183 5 -4260 10 -4618 15 -1022 42 -1583 101 -2125
273 -2507 1520 -4322 3422 -4979 1045 -361 2293 -359 3337 4 434 151 887 387
1245 648 210 154 482 386 650 556 l80 81 221 0 c244 0 400 10 634 41 2020 264
3745 1762 4259 3699 187 704 245 1418 222 2738 -7 399 -11 1998 -11 4280 l0
3642 -1957 0 -1956 0 6 -5212 c3 -3153 2 -5300 -4 -5433 -53 -1257 -334 -2248
-866 -3059 -143 -218 -326 -453 -486 -622 l-72 -77 -240 12 c-271 13 -450 31
-674 67 -573 91 -1103 274 -1592 549 -141 80 -417 267 -559 382 -158 126 -423
382 -558 538 -709 822 -1132 1919 -1246 3235 -44 506 -56 1769 -56 6093 l0
3527 -1955 0 -1955 0 0 -3967z"/>
</g>
</svg>
