<?xml version="1.0" standalone="no"?>
<!DOCTYPE svg PUBLIC "-//W3C//DTD SVG 20010904//EN"
 "http://www.w3.org/TR/2001/REC-SVG-20010904/DTD/svg10.dtd">
<svg version="1.0" xmlns="http://www.w3.org/2000/svg"
 width="153.000000pt" height="48.000000pt" viewBox="0 0 153.000000 48.000000"
 preserveAspectRatio="xMidYMid meet">

<g transform="translate(0.000000,48.000000) scale(0.100000,-0.100000)"
fill="#EE3A43" stroke="none">
<path d="M73 341 c-23 -11 -46 -28 -52 -39 -11 -20 -3 -83 14 -126 7 -15 5
-18 -6 -12 -8 4 -1 -4 14 -18 32 -30 77 -34 121 -11 35 18 39 19 30 3 -4 -7 5
-2 19 11 58 53 55 154 -6 191 -40 25 -80 25 -134 1z m110 -2 c58 -30 78 -122
37 -170 -22 -28 -27 -14 -5 15 17 23 20 79 4 107 -5 11 -25 29 -42 39 -34 21
-30 27 6 9z m-125 -31 c-18 -18 -35 -32 -38 -30 -5 4 57 62 66 62 3 0 -9 -15
-28 -32z m108 -52 c7 -8 19 -16 26 -19 25 -8 3 -14 -71 -20 -65 -4 -72 -3 -55
9 10 7 24 17 29 22 12 10 35 20 48 21 5 1 15 -5 23 -13z m-90 -111 c16 -8 22
-15 13 -15 -8 0 -24 7 -35 15 -25 19 -14 19 22 0z"/>
<path d="M421 351 c-8 -5 -11 -16 -8 -25 3 -8 -9 -40 -28 -72 -35 -58 -53
-119 -40 -132 10 -10 32 22 76 112 46 94 44 92 64 76 26 -22 17 -48 -22 -69
l-38 -20 31 -1 c67 -1 110 73 65 114 -22 20 -80 30 -100 17z"/>
<path d="M600 337 c-29 -14 -40 -47 -16 -47 15 0 53 46 45 55 -3 2 -16 -2 -29
-8z"/>
<path d="M1102 305 c-20 -28 -39 -45 -52 -45 -11 0 -20 -7 -20 -15 0 -8 5 -15
10 -15 6 0 9 -19 8 -42 -4 -56 15 -57 45 -3 14 25 31 41 45 43 19 3 22 -1 22
-27 0 -41 24 -40 40 2 8 17 18 38 23 44 13 17 18 93 6 93 -5 0 -19 -16 -30
-35 -19 -31 -54 -54 -65 -42 -3 2 0 16 6 31 25 68 6 73 -38 11z"/>
<path d="M1420 300 c-6 -12 -21 -20 -35 -20 -26 0 -32 -9 -15 -26 6 -6 6 -23
-1 -47 -18 -68 -6 -76 26 -17 27 49 36 57 80 72 l50 16 -37 1 c-31 1 -38 5
-38 21 0 11 -4 20 -10 20 -5 0 -14 -9 -20 -20z"/>
<path d="M722 278 c3 -7 17 -15 32 -18 l27 -5 -36 -35 c-31 -30 -33 -35 -18
-42 30 -11 79 -9 140 7 31 8 73 15 91 15 31 0 33 2 21 17 -8 9 -14 26 -14 37
0 37 -68 33 -105 -6 -11 -12 -20 -30 -20 -41 0 -13 -5 -17 -16 -13 -9 3 -23 6
-32 6 -11 0 -7 9 16 33 47 48 42 57 -29 57 -44 0 -60 -3 -57 -12z m198 -43
c-7 -8 -20 -15 -29 -15 -12 1 -11 5 8 21 26 22 41 18 21 -6z"/>
<path d="M542 235 c-32 -36 -40 -74 -16 -82 12 -4 58 89 52 107 -2 7 -17 -3
-36 -25z"/>
<path d="M600 260 c0 -5 14 -13 31 -17 l31 -8 -41 -33 c-23 -18 -41 -39 -41
-46 0 -18 175 -30 204 -13 19 11 18 12 -14 15 -19 1 -54 5 -78 8 l-43 5 31 35
c36 41 37 50 8 58 -36 9 -88 7 -88 -4z"/>
<path d="M1232 212 c-10 -30 -9 -39 3 -52 14 -13 19 -13 43 1 25 14 28 13 43
-5 15 -19 16 -18 23 28 4 26 5 50 2 53 -3 3 -20 -7 -38 -22 l-33 -28 -3 26
c-5 41 -28 40 -40 -1z"/>
</g>
</svg>
