<?xml version="1.0" encoding="utf-8"?>
<!-- Generator: Adobe Illustrator 25.4.1, SVG Export Plug-In . SVG Version: 6.00 Build 0)  -->
<svg version="1.0" id="katman_1" xmlns="http://www.w3.org/2000/svg" xmlns:xlink="http://www.w3.org/1999/xlink" x="0px" y="0px"
	 viewBox="0 0 790 580" style="enable-background:new 0 0 790 580;" xml:space="preserve">
<style type="text/css">
	.st0{clip-path:url(#SVGID_00000011019623593856497580000008458478512947212732_);}
</style>
<g>
	<defs>
		<rect id="SVGID_1_" x="95" y="190" width="600" height="200"/>
	</defs>
	<clipPath id="SVGID_00000127743643683854164150000017778494195895284382_">
		<use xlink:href="#SVGID_1_"  style="overflow:visible;"/>
	</clipPath>
	<g style="clip-path:url(#SVGID_00000127743643683854164150000017778494195895284382_);">
		<path d="M322.2,376.6c20.7,0,35.9-12.3,35.9-29.2c0-7.7-3.2-14.6-9-19.2c-4.5-3.4-12.6-7.5-22.5-11c-6.3-2.3-8.8-4.5-8.8-6.9
			c0-2.5,2.3-4.3,5.6-4.3c2.2,0,5.2,0.7,7.7,1.8l2.3,0.9l4.7,2.1c2.5,0.9,4.7,1.4,6.5,1.6c5.8,0.4,11.3-5.5,11.3-11.9
			c0-10.3-13.3-18.2-30.6-18.2c-19.8,0-34.3,12.3-34.3,29c0,7.7,2.5,13.9,7.4,18.2c4.1,3.4,12.6,7.3,25.3,11.6
			c5.6,2,7.7,3.7,7.7,6.4c0,3.4-2.5,5.3-7,5.3c-2.9,0-6.5-0.9-9.2-2.3l-4.3-2.1l-2.3-1.2c-3.1-1.6-5.8-2.3-8.3-2.3
			c-6.1,0-11.9,5.9-11.9,12.1C288.6,366.8,305.1,376.6,322.2,376.6L322.2,376.6z M389.8,375.5c8.3,0,13.5-5.7,13.5-14.8v-50.6h6.5
			c9.5,0,14.7-4.3,14.7-12.5c0-8.5-4.9-12.6-14.7-12.6h-6.5v-16.6c0-9.1-5.2-14.8-13.5-14.8c-8.4,0-13.5,5.7-13.5,14.8v16.6h-2
			c-9.7,0-14.6,4.1-14.6,12.6c0,8.4,4.9,12.5,14.6,12.5h2v50.6C376.3,369.8,381.5,375.5,389.8,375.5L389.8,375.5z M442.6,375.7
			c8.1,0,13.3-5.7,13.3-14.8v-34.5c0-2.7,0.5-5.5,1.6-7.8c1.3-3,3.2-4.6,8.4-6.4c18-6.9,13.3-5.2,14.4-5.5c4.9-2.1,6.8-5.5,6.8-11
			c0-6.9-6.3-13-13.3-13c-6.3,0-12,3-18.9,10.1c-2.9-7.1-6.1-9.6-12.4-9.6c-8.4,0-13.7,5.5-13.7,14.8v63
			C429,370,434.2,375.7,442.6,375.7L442.6,375.7z M505,276.9c9.3,0,15.8-6.4,15.8-15.5c0-9.1-6.6-15.7-15.6-15.7
			c-9.2,0-15.8,6.6-15.8,15.5C489.4,270.3,496,276.9,505,276.9z M505.2,375.3c8.1,0,13.3-5.7,13.3-14.8v-62.5
			c0-9.1-5.2-14.8-13.3-14.8c-8.4,0-13.7,5.5-13.7,14.8v62.5C491.5,369.8,496.6,375.4,505.2,375.3L505.2,375.3z M595.9,375.5
			c7.4,0,13.1-5.5,13.1-12.6c0-4.6-1.1-6.6-9-16.2l-1.6-2L581,322.8l12.6-12.8c8.6-9.1,6.3-6.6,7.2-7.7c2.5-2.8,3.1-4.3,3.1-6.9
			c0-6.8-5.6-13-11.9-13c-5,0-8.8,2.1-15.5,9.3l-3.6,3.9l-17.1,17.8V260c0-9.1-5.2-14.8-13.5-14.8c-5,0-9.5,2.5-11.9,6.4
			c-1.3,2.3-1.6,3.9-1.6,8.4v100.8c0,9.3,5,14.8,13.5,14.8c8.4,0,13.5-5.7,13.5-14.8V333l17.4,22.4l3.2,4.3
			C586,372.3,589.8,375.5,595.9,375.5z M653.7,376.4c10.2,0,20.1-2.5,28.9-7.3c7.2-4.1,10.8-8.7,10.8-13.9c0-6.2-5-11.8-11-11.8
			c-1.8,0-4.5,0.7-7,2l-2,0.9l-1.8,0.9l-2,1.1l-2.3,1.1c-5,2-7.9,2.7-12.4,2.7c-9.9,0-16.4-4.8-18.7-13.7h47.6
			c8.1,0,11.1-3.2,11.1-11.4c0-8.2-2.3-16.6-6.5-23.7c-8.1-13.5-20.8-20.8-36.8-20.8c-26.8,0-45.1,19.9-45.1,49.1
			C606.6,358.1,626,376.4,653.7,376.4z M174.2,202.6l76.1,27.7c0.3,0.1,0.6,0.2,0.9,0.4c0.7,0.2,1.4,0.4,2,0.7
			c24.2,8.8,36.8,35.4,28.1,59.3c-8.7,23.9-35.4,36.2-59.7,27.4l-79-28.7c-4.8-1.8-7.4-7.1-5.6-11.9c1.7-4.8,7.1-7.2,11.9-5.5
			l43.9,16c-2-6.5-2.6-13.4-1.6-20.2l-90.1-32.8c-4.8-1.8-7.4-7.1-5.6-11.9c1.7-4.8,7.1-7.2,11.9-5.5l90.1,32.8
			c3.6-5.8,8.4-10.8,14.2-14.5l-43.9-16c-4.8-1.8-7.4-7.1-5.6-11.9C164.1,203.3,169.4,200.8,174.2,202.6z M652,304.3
			c9,0,14.6,5.2,16.2,15.5h-33.4C637.5,309.7,643.4,304.3,652,304.3z M211.3,265.2c-5.3,14.4,2.3,30.4,16.9,35.7
			c14.6,5.3,30.6-2.1,35.9-16.5c5.2-14.4-2.3-30.4-16.9-35.7C232.7,243.3,216.6,250.7,211.3,265.2z"/>
	</g>
</g>
</svg>
